<?xml version="1.0" encoding="UTF-8" standalone="no"?>
<!-- Created with Inkscape (http://www.inkscape.org/) -->
<svg xmlns:inkscape="http://www.inkscape.org/namespaces/inkscape" xmlns:rdf="http://www.w3.org/1999/02/22-rdf-syntax-ns#" xmlns="http://www.w3.org/2000/svg" xmlns:xlink="http://www.w3.org/1999/xlink" xmlns:ns1="http://sozi.baierouge.fr" xmlns:cc="http://creativecommons.org/ns#" xmlns:sodipodi="http://sodipodi.sourceforge.net/DTD/sodipodi-0.dtd" xmlns:dc="http://purl.org/dc/elements/1.1/" id="svg2" xml:space="preserve" viewBox="0 0 47.964 46.558" version="1.1" inkscape:version="0.91 r13725">
  <defs id="defs6">
    <clipPath id="clipPath18">
      <path id="path20" d="m31.527 0.926c-3.316-0.617-7.32-0.926-12.007-0.926-4.715 0-8.719 0.309-12.012 0.926-3.313 0.621-4.969 1.371-4.969 2.254 0 0.879 1.656 1.633 4.969 2.25 3.293 0.621 7.297 0.929 12.012 0.929 4.687 0 8.691-0.308 12.007-0.929 3.313-0.617 4.969-1.371 4.969-2.25 0-0.883-1.656-1.633-4.969-2.254z" inkscape:connector-curvature="0"/>
    </clipPath>
    <clipPath id="clipPath26">
      <path id="path28" d="m3.8051 10.24h51.738v63.171h-51.738v-63.171z" inkscape:connector-curvature="0"/>
    </clipPath>
    <radialGradient id="radialGradient30" gradientUnits="userSpaceOnUse" cy="41.3" cx="29.7" r="23.412">
      <stop id="stop32" style="stop-color:#ffffff;stop-opacity:0.8" offset="0"/>
      <stop id="stop34" style="stop-color:#ffffff;stop-opacity:.18819" offset=".63530"/>
      <stop id="stop38" style="stop-color:#ffffff;stop-opacity:0" offset="1"/>
    </radialGradient>
    <mask id="mask40">
      <g id="g42">
        <g id="g44" clip-path="url(#clipPath26)">
          <path id="path46" style="fill:url(#radialGradient30)" d="m3.8051 10.24h51.738v63.171h-51.738v-63.171z" inkscape:connector-curvature="0"/>
        </g>
      </g>
    </mask>
    <radialGradient id="radialGradient50" gradientUnits="userSpaceOnUse" cy="41.3" cx="29.7" r="23.412">
      <stop id="stop52" style="stop-color:#000000" offset="0"/>
      <stop id="stop54" style="stop-color:#000000" offset=".63530"/>
      <stop id="stop56" style="stop-color:#000000" offset="1"/>
    </radialGradient>
    <radialGradient id="radialGradient70" gradientUnits="userSpaceOnUse" cy="-16403" cx="100" gradientTransform="matrix(-.00944 -.79992 -1.9469 .02304 -31914 488.98)" r="4.0628">
      <stop id="stop72" style="stop-color:#f5dc93" offset="0"/>
      <stop id="stop74" style="stop-color:#f4c125" offset=".20390"/>
      <stop id="stop76" style="stop-color:#b47527" offset="1"/>
    </radialGradient>
    <radialGradient id="radialGradient90" gradientUnits="userSpaceOnUse" cy="-16742" cx="390.28" gradientTransform="matrix(-.0452 -.79872 .8844 -.04112 14854 -347.31)" r="14.822">
      <stop id="stop92" style="stop-color:#f5dc93" offset="0"/>
      <stop id="stop94" style="stop-color:#f4c125" offset=".20390"/>
      <stop id="stop96" style="stop-color:#b47527" offset="1"/>
    </radialGradient>
    <radialGradient id="radialGradient110" gradientUnits="userSpaceOnUse" cy="-12.65" cx="35.2" gradientTransform="matrix(-.00976 -.79992 .88552 -.0108 39.691 55.134)" r="20.552">
      <stop id="stop112" style="stop-color:#f5dc93" offset="0"/>
      <stop id="stop114" style="stop-color:#f4c125" offset=".20390"/>
      <stop id="stop116" style="stop-color:#b47527" offset="1"/>
    </radialGradient>
    <radialGradient id="radialGradient130" gradientUnits="userSpaceOnUse" cy="-15839" cx="-365.58" gradientTransform="matrix(.04576 -.79872 -.88488 -.04104 -13990 -912.77)" r="14.849">
      <stop id="stop132" style="stop-color:#f5dc93" offset="0"/>
      <stop id="stop134" style="stop-color:#f4c125" offset=".20390"/>
      <stop id="stop136" style="stop-color:#b47527" offset="1"/>
    </radialGradient>
    <radialGradient id="radialGradient156" gradientUnits="userSpaceOnUse" cy="-16218" cx="-91.052" gradientTransform="matrix(.00976 -.79992 -.88552 -.0108 -14351 -220.74)" r="20.552">
      <stop id="stop158" style="stop-color:#f5dc93" offset="0"/>
      <stop id="stop160" style="stop-color:#f4c125" offset=".20390"/>
      <stop id="stop162" style="stop-color:#b47527" offset="1"/>
    </radialGradient>
    <radialGradient id="radialGradient184" gradientUnits="userSpaceOnUse" cy="-16245" cx="-49.829" gradientTransform="matrix(.00624 -.8 -.78408 -.00608 -12719 -116.31)" r="19.463">
      <stop id="stop186" style="stop-color:#f5dc93" offset="0"/>
      <stop id="stop188" style="stop-color:#f4c125" offset=".20390"/>
      <stop id="stop190" style="stop-color:#b47527" offset="1"/>
    </radialGradient>
    <clipPath id="clipPath204">
      <path id="path206" d="m37.105 22.832c1.2-2.371 1.547-4.734 1.04-7.078-0.161-0.695-0.84-2.387-2.04-5.082-0.585-1.277-1.546-2.52-2.878-3.719-1.227-1.066-2.243-1.695-3.043-1.879-1.223-0.883-2.426-1.519-3.598-1.922-1.176-0.375-2.402-0.613-3.68-0.718h-1.601c-0.746-0.614-1.532-0.879-2.36-0.801-0.613 0.027-1.332 0.293-2.16 0.801-1.652-0.082-3.32 0.16-5 0.718-1.172 0.403-2.375 1.039-3.601 1.922-0.797 0.184-1.813 0.813-3.039 1.879-1.333 1.199-2.293 2.442-2.879 3.719-1.2 2.695-1.879 4.387-2.039 5.082-0.508 2.348-0.161 4.707 1.039 7.078 1.359 2.668 3.425 4.602 6.199 5.801 1.894 0.828 3.613 1.187 5.16 1.078 1.039-0.133 1.934-0.277 2.68-0.438 1.226 0.586 2.613 0.879 4.16 0.879 1.441 0 2.64-0.265 3.601-0.8l2.68 0.359c1.547 0.109 3.266-0.25 5.16-1.078 2.774-1.199 4.84-3.133 6.199-5.801z" inkscape:connector-curvature="0"/>
    </clipPath>
    <clipPath id="clipPath212">
      <path id="path214" d="m3.872-16339h36.251v58.335h-36.251v-58.335z" inkscape:connector-curvature="0"/>
    </clipPath>
    <radialGradient id="radialGradient216" gradientUnits="userSpaceOnUse" cy="-16308" cx="4.8389" r="35.075">
      <stop id="stop218" style="stop-color:#ffffff;stop-opacity:0" offset="0"/>
      <stop id="stop220" style="stop-color:#ffffff" offset="1"/>
    </radialGradient>
    <mask id="mask222">
      <g id="g224">
        <g id="g226" clip-path="url(#clipPath212)">
          <path id="path228" style="fill:url(#radialGradient216)" d="m3.872-16339h36.251v58.335h-36.251v-58.335z" inkscape:connector-curvature="0"/>
        </g>
      </g>
    </mask>
    <radialGradient id="radialGradient232" gradientUnits="userSpaceOnUse" cy="-16308" cx="4.8389" r="35.075">
      <stop id="stop234" style="stop-color:#f4c125" offset="0"/>
      <stop id="stop236" style="stop-color:#603c10" offset="1"/>
    </radialGradient>
    <radialGradient id="radialGradient250" gradientUnits="userSpaceOnUse" cy="-16237" cx="-71.669" gradientTransform="matrix(.00696 -.8 -.70832 -.00616 -11482 -122.37)" r="6.8753">
      <stop id="stop252" style="stop-color:#9fab41" offset="0"/>
      <stop id="stop254" style="stop-color:#796d12" offset="1"/>
    </radialGradient>
    <radialGradient id="radialGradient268" gradientUnits="userSpaceOnUse" cy="-16234" cx="-76.967" gradientTransform="matrix(.0072 -.8 -.70712 -.00632 -11461 -128.07)" r="3.6627">
      <stop id="stop270" style="stop-color:#9fab41" offset="0"/>
      <stop id="stop272" style="stop-color:#796d12" offset="1"/>
    </radialGradient>
    <radialGradient id="radialGradient292" gradientUnits="userSpaceOnUse" cy="-33.151" cx="16290" gradientTransform="matrix(.00001956 .8 .8 .00001956 45.067 -13028)" r="20.45">
      <stop id="stop294" style="stop-color:#785120" offset="0"/>
      <stop id="stop296" style="stop-color:#2a1804" offset="1"/>
    </radialGradient>
    <linearGradient id="linearGradient328" y2="-14406" gradientUnits="userSpaceOnUse" x2="-1518.3" gradientTransform="matrix(.16952 -.78184 .78184 .16952 11529 1269.4)" y1="-14406" x1="-1525.6">
      <stop id="stop330" style="stop-color:#866327" offset="0"/>
      <stop id="stop332" style="stop-color:#dec162" offset="1"/>
    </linearGradient>
    <linearGradient id="linearGradient346" y2="-16774" gradientUnits="userSpaceOnUse" x2="510.76" gradientTransform="matrix(-.04664 -.79864 .79864 -.04664 13431 -358.79)" y1="-16774" x1="507.33">
      <stop id="stop348" style="stop-color:#866327" offset="0"/>
      <stop id="stop350" style="stop-color:#dec162" offset="1"/>
    </linearGradient>
    <radialGradient id="radialGradient364" gradientUnits="userSpaceOnUse" cy="-41.3" cx="28.85" gradientTransform="matrix(.8 0 0 .8 -3.8145 37.233)" r="20.45">
      <stop id="stop366" style="stop-color:#785120" offset="0"/>
      <stop id="stop368" style="stop-color:#2a1804" offset="1"/>
    </radialGradient>
    <linearGradient id="linearGradient382" y2="-21.106" gradientUnits="userSpaceOnUse" x2="41.369" gradientTransform="matrix(.8 0 0 .8 -3.8145 37.233)" y1="-28.256" x1="42.919">
      <stop id="stop384" style="stop-color:#866327" offset="0"/>
      <stop id="stop386" style="stop-color:#dec162" offset="1"/>
    </linearGradient>
    <linearGradient id="linearGradient400" y2="-23.698" gradientUnits="userSpaceOnUse" x2="39.346" gradientTransform="matrix(.8 0 0 .8 -3.8145 37.233)" y1="-27.124" x1="39.146">
      <stop id="stop402" style="stop-color:#866327" offset="0"/>
      <stop id="stop404" style="stop-color:#dec162" offset="1"/>
    </linearGradient>
    <linearGradient id="linearGradient418" y2="-16300" gradientUnits="userSpaceOnUse" x2="39.933" gradientTransform="matrix(.00024242 -.8 .8 -.0008 13059 26.698)" y1="-16300" x1="36.633">
      <stop id="stop420" style="stop-color:#866327" offset="0"/>
      <stop id="stop422" style="stop-color:#dec162" offset="1"/>
    </linearGradient>
    <linearGradient id="linearGradient436" y2="-16303" gradientUnits="userSpaceOnUse" x2="38.307" gradientTransform="matrix(.00051613 -.8 .8 -.0008 13057 26.697)" y1="-16303" x1="36.757">
      <stop id="stop438" style="stop-color:#866327" offset="0"/>
      <stop id="stop440" style="stop-color:#dec162" offset="1"/>
    </linearGradient>
    <linearGradient id="linearGradient454" y2="-16291" gradientUnits="userSpaceOnUse" x2="38.296" gradientTransform="matrix(.00051613 -.8 .8 -.0008 13057 26.697)" y1="-16291" x1="36.746">
      <stop id="stop456" style="stop-color:#866327" offset="0"/>
      <stop id="stop458" style="stop-color:#dec162" offset="1"/>
    </linearGradient>
  </defs>
  <g id="g10" transform="matrix(1.25 0 0 -1.25 0 46.558)">
    <g id="g12">
      <g id="g14">
        <g id="g16" clip-path="url(#clipPath18)">
          <g id="g22" transform="matrix(.67648 0 0 .12664 -.57410 -2.0507)">
            <g id="g48" mask="url(#mask40)">
              <path id="path58" style="fill-rule:evenodd;fill:url(#radialGradient50)" d="m31.527 0.926c-3.316-0.617-7.32-0.926-12.007-0.926-4.715 0-8.719 0.309-12.012 0.926-3.313 0.621-4.969 1.371-4.969 2.254 0 0.879 1.656 1.633 4.969 2.25 3.293 0.621 7.297 0.929 12.012 0.929 4.687 0 8.691-0.308 12.007-0.929 3.313-0.617 4.969-1.371 4.969-2.25 0-0.883-1.656-1.633-4.969-2.254z" inkscape:connector-curvature="0"/>
            </g>
          </g>
        </g>
      </g>
      <g id="g60">
        <g id="g62">
          <g id="g68">
            <path id="path78" style="fill-rule:evenodd;fill:url(#radialGradient70)" d="m23.945 27.512-6.398-0.399-2.563 0.719-0.238 1.16c1.227 0.774 2.801 1.16 4.719 1.16 1.121 0 2.148-0.187 3.082-0.558 0.851-0.348 1.348-0.696 1.48-1.039 0.133-0.457 0.106-0.801-0.082-1.043z" inkscape:connector-curvature="0"/>
          </g>
        </g>
      </g>
      <g id="g80">
        <g id="g82">
          <g id="g88">
            <path id="path98" style="fill-rule:evenodd;fill:url(#radialGradient90)" d="m38.145 15.754c-0.161-0.695-0.84-2.387-2.04-5.082-0.585-1.332-1.613-2.625-3.078-3.879-1.336-1.121-2.363-1.707-3.082-1.762-0.851-0.078-3.347 0.774-7.48 2.563l-3.039 20.437c0.668 0.801 2.773 1.364 6.32 1.68 1.547 0.109 3.266-0.25 5.16-1.078 2.774-1.199 4.84-3.133 6.199-5.801 1.2-2.371 1.547-4.734 1.04-7.078z" inkscape:connector-curvature="0"/>
          </g>
        </g>
      </g>
      <g id="g100">
        <g id="g102">
          <g id="g108">
            <path id="path118" style="fill-rule:evenodd;fill:url(#radialGradient110)" d="m36.184 14.512c-0.399-2.184-1.118-4.028-2.157-5.52-0.91-1.332-2.027-2.519-3.363-3.558-1.332-1.067-2.691-1.828-4.078-2.282-1.176-0.375-2.402-0.613-3.68-0.718h-1.601l-1.399 25.199 2.039 0.32c1.602 0.188 3.067 0.227 4.399 0.121 1.894-0.136 3.683-0.722 5.363-1.761 2.023-1.227 3.398-2.868 4.117-4.918 0.723-2.055 0.84-4.348 0.36-6.883z" inkscape:connector-curvature="0"/>
          </g>
        </g>
      </g>
      <g id="g120">
        <g id="g122">
          <g id="g128">
            <path id="path138" style="fill-rule:evenodd;fill:url(#radialGradient130)" d="m0.227 15.754c-0.508 2.344-0.161 4.707 1.039 7.078 1.359 2.668 3.425 4.602 6.199 5.801 1.894 0.828 3.613 1.187 5.16 1.078 1.227-0.105 2.508-0.332 3.84-0.68 1.652-0.425 2.601-0.89 2.84-1.398l-3.438-20.039c-4.109-1.789-6.59-2.641-7.441-2.563-0.719 0.055-1.746 0.641-3.082 1.762-1.465 1.254-2.492 2.547-3.078 3.879-1.2 2.695-1.879 4.387-2.039 5.082z" inkscape:connector-curvature="0"/>
          </g>
        </g>
      </g>
      <path id="path140" style="fill-rule:evenodd;fill:#a96f24" d="m1.145 17.512c0.214 1.281 0.468 2.519 0.761 3.722 0.371 1.598 1.371 3.039 3 4.321 1.227 0.984 2.574 1.73 4.039 2.238 1.332 0.453 3.746 0.426 7.239-0.082l2.363-4.477-2.68-15.64-2.523-1.039-1.438 1.476v11.922l-9.359 1.442-0.363-1c-0.239-0.801-0.411-1.563-0.52-2.282-0.078-0.828-0.066-1.84 0.043-3.039 0.105-1.066 0.254-1.906 0.438-2.519 0.242-0.75 0.199-1.203-0.118-1.364-0.668 1.442-1.027 2.243-1.082 2.403-0.425 1.012-0.707 1.961-0.84 2.84h0.282c0.371 0 0.625 0.359 0.758 1.078z" inkscape:connector-curvature="0"/>
      <path id="path142" style="fill-rule:evenodd;fill:#a26921" d="m1.707 15.074c-0.109 1.199-0.121 2.211-0.043 3.039 0.109 0.719 0.281 1.481 0.52 2.282l0.363 1 9.359-1.442v-11.922l-7.84 8-2 0.602 0.161-1.879c0.16-1.441 0.425-2.586 0.8-3.441 0.586-1.415 1-2.481 1.239-3.2l-0.2-0.039c-0.828 0.852-1.429 1.719-1.8 2.598l-0.239 0.519c0.317 0.161 0.36 0.614 0.118 1.364-0.184 0.613-0.333 1.453-0.438 2.519z" inkscape:connector-curvature="0"/>
      <path id="path144" style="fill-rule:evenodd;fill:#905d1c" d="m2.227 14.754-0.161 1.879 2-0.602 9.278-9.476c-2.614-1.094-4.25-1.602-4.918-1.524-0.453 0.028-1.094 0.321-1.922 0.883-0.879 0.613-1.692 1.332-2.438 2.16l0.2 0.039c-0.239 0.719-0.653 1.785-1.239 3.2-0.375 0.855-0.64 2-0.8 3.441z" inkscape:connector-curvature="0"/>
      <g id="g146">
        <g id="g148">
          <g id="g154">
            <path id="path164" style="fill-rule:evenodd;fill:url(#radialGradient156)" d="m2.184 14.512c-0.477 2.535-0.36 4.828 0.363 6.883 0.719 2.05 2.094 3.691 4.117 4.918 1.68 1.039 3.469 1.625 5.363 1.761 2.133 0.16 4.278 0.012 6.438-0.441l-1.399-25.199c-1.656-0.133-3.414 0.105-5.281 0.718-1.387 0.454-2.746 1.215-4.078 2.282-1.336 1.039-2.457 2.226-3.363 3.558-1.012 1.492-1.731 3.336-2.16 5.52z" inkscape:connector-curvature="0"/>
          </g>
        </g>
      </g>
      <path id="path166" style="fill-rule:evenodd;fill:#a96f24" d="m18.344 27.633h0.121l-0.879-16.078-7.121 4.597c-0.106-2.105-0.121-3.558-0.039-4.359 0.054-0.641 0.226-1.641 0.519-3 0.293-1.281 0.442-2.055 0.442-2.32 0.023-0.508-0.254-0.918-0.84-1.239-0.668-0.402-1.481-0.441-2.442-0.121-1.281 0.985-2.281 1.946-3 2.879 1.067-0.398 1.961-0.465 2.68-0.199 0.668 0.238 1.094 0.734 1.281 1.48-0.054 0.614-0.082 1.321-0.082 2.122-0.05 1.597 0.266 3.89 0.961 6.878 0.719 3.04 2.293 5.493 4.719 7.36 1.227 0.933 2.453 1.601 3.68 2z" inkscape:connector-curvature="0"/>
      <path id="path168" style="fill-rule:evenodd;fill:#a26921" d="m17.586 11.555-0.16-2.364-5.922 3.68-0.438-0.758 0.2-1.601c0.187-1.227 0.453-2.199 0.8-2.918 0.774-1.574 1.161-2.653 1.161-3.242 0-0.266-0.188-0.504-0.563-0.719-0.48-0.215-1.078-0.254-1.797-0.121-0.933 0.402-1.855 0.933-2.762 1.601 0.961-0.32 1.774-0.281 2.442 0.121 0.586 0.321 0.863 0.731 0.84 1.239 0 0.265-0.149 1.039-0.442 2.32-0.293 1.359-0.465 2.359-0.519 3-0.082 0.801-0.067 2.254 0.039 4.359l7.121-4.597z" inkscape:connector-curvature="0"/>
      <path id="path170" style="fill-rule:evenodd;fill:#905d1c" d="m11.266 10.512-0.2 1.601 0.438 0.758 5.922-3.68-0.242-4.878c-0.372 0.132-0.758 0.226-1.157 0.281l-0.48 0.039 0.277-0.32c0.082-0.293-0.105-0.641-0.558-1.04-0.375-0.347-1.055-0.519-2.039-0.519l-2.36 0.758c0.719-0.133 1.317-0.094 1.797 0.121 0.375 0.215 0.563 0.453 0.563 0.719 0 0.586-0.387 1.668-1.161 3.242-0.347 0.719-0.613 1.691-0.8 2.918z" inkscape:connector-curvature="0"/>
      <path id="path172" style="fill-rule:evenodd;fill:#6e4613" d="m15.266 3.273c0.453 0.399 0.64 0.747 0.558 1.04l-0.277 0.32 0.48-0.039c0.399-0.055 0.785-0.149 1.157-0.281l-0.118-1.879c-1.121-0.082-2.402 0.027-3.839 0.32 0.984 0 1.664 0.172 2.039 0.519z" inkscape:connector-curvature="0"/>
      <g id="g174">
        <g id="g176">
          <g id="g182">
            <path id="path192" style="fill-rule:evenodd;fill:url(#radialGradient184)" d="m18.945 27.793c2.16-0.027 3.961-0.734 5.399-2.121 1.308-1.277 2.094-2.906 2.363-4.879 0.211-1.734-0.016-4.293-0.68-7.68-0.617-3.148-1.254-5.359-1.922-6.64-0.746-1.492-1.453-2.614-2.121-3.36-0.957-1.066-1.972-1.558-3.039-1.48-1.066 0.078-2.172 0.64-3.32 1.68-0.984 0.878-1.895 2-2.719 3.359-0.933 1.547-1.64 3.16-2.121 4.84-0.453 1.629-0.652 3.16-0.601 4.601 0.109 2 0.628 3.907 1.562 5.719 0.692 1.387 1.481 2.496 2.359 3.32 0.641 0.614 1.481 1.2 2.52 1.762 1.066 0.586 1.84 0.879 2.32 0.879z" inkscape:connector-curvature="0"/>
          </g>
        </g>
      </g>
      <path id="path194" style="fill-rule:evenodd;fill:#a96f24" d="m12.906 6.672c-0.187 0.32-0.535 0.973-1.039 1.961 0.879-1.094 2.41-1.856 4.598-2.281 1.894-0.344 3.414-0.371 4.562-0.079 1.758 0.504 3.317 2.293 4.68 5.36l-0.602-2.442c-0.828-1.652-1.265-2.531-1.32-2.636-0.773-1.336-1.508-2.176-2.199-2.524-2.106-1.066-4.215-0.972-6.32 0.282l-1.239 0.761-1.121 1.598z" inkscape:connector-curvature="0"/>
      <path id="path196" style="fill-rule:evenodd;fill:#a26921" d="m17.867 2.555c-0.828 0.105-1.668 0.453-2.523 1.039-0.399 0.371-0.84 0.867-1.317 1.48l1.239-0.761c2.105-1.254 4.214-1.348 6.32-0.282 0.691 0.348 1.426 1.188 2.199 2.524 0.055 0.105 0.492 0.984 1.32 2.636-0.425-1.359-0.761-2.265-1-2.718l-0.761-1.442c-0.879-1.226-1.84-2-2.879-2.32-0.641-0.211-1.504-0.266-2.598-0.156z" inkscape:connector-curvature="0"/>
      <path id="path198" style="fill-rule:evenodd;fill:#6e4613" d="m15.344 3.594c0.855-0.586 1.695-0.934 2.523-1.039 1.094-0.11 1.957-0.055 2.598 0.156 1.039 0.32 2 1.094 2.879 2.32-1.41-2.398-2.879-3.531-4.399-3.398-1.172 0.105-2.375 0.762-3.601 1.961z" inkscape:connector-curvature="0"/>
      <g id="g200">
        <g id="g202" clip-path="url(#clipPath204)">
          <g id="g208" transform="matrix(.000011404 -.8 -.66856 .000011404 -10885 33.53)">
            <g id="g230" mask="url(#mask222)">
              <path id="path238" style="fill-rule:evenodd;fill:url(#radialGradient232)" d="m37.105 22.832c1.2-2.371 1.547-4.734 1.04-7.078-0.161-0.695-0.84-2.387-2.04-5.082-0.585-1.277-1.546-2.52-2.878-3.719-1.227-1.066-2.243-1.695-3.043-1.879-1.223-0.883-2.426-1.519-3.598-1.922-1.176-0.375-2.402-0.613-3.68-0.718h-1.601c-0.746-0.614-1.532-0.879-2.36-0.801-0.613 0.027-1.332 0.293-2.16 0.801-1.652-0.082-3.32 0.16-5 0.718-1.172 0.403-2.375 1.039-3.601 1.922-0.797 0.184-1.813 0.813-3.039 1.879-1.333 1.199-2.293 2.442-2.879 3.719-1.2 2.695-1.879 4.387-2.039 5.082-0.508 2.348-0.161 4.707 1.039 7.078 1.359 2.668 3.425 4.602 6.199 5.801 1.894 0.828 3.613 1.187 5.16 1.078 1.039-0.133 1.934-0.277 2.68-0.438 1.226 0.586 2.613 0.879 4.16 0.879 1.441 0 2.64-0.265 3.601-0.8l2.68 0.359c1.547 0.109 3.266-0.25 5.16-1.078 2.774-1.199 4.84-3.133 6.199-5.801z" inkscape:connector-curvature="0"/>
            </g>
          </g>
        </g>
      </g>
      <g id="g240">
        <g id="g242">
          <g id="g248">
            <path id="path256" style="fill-rule:evenodd;fill:url(#radialGradient250)" d="m21.746 35.074c-0.215-0.722-0.402-1.215-0.562-1.48-0.211-0.403-0.411-0.988-0.598-1.762-0.188-0.773-0.281-1.398-0.281-1.879 0-0.64 0.105-1.398 0.32-2.281-0.16 0.16-0.453 0.215-0.879 0.16h-0.082c-0.824 0.082-1.586-0.078-2.277-0.48l-0.16 0.082c-0.747 1.945-1.176 3.586-1.282 4.918-0.05 0.855-0.078 1.761-0.078 2.722v1.16l0.52-0.363 0.16-0.199c0.453-0.453 1.027-0.746 1.719-0.879 0.718-0.32 1.398-0.371 2.039-0.16 0.48 0.027 0.945 0.172 1.402 0.441h0.039z" inkscape:connector-curvature="0"/>
          </g>
        </g>
      </g>
      <g id="g258">
        <g id="g260">
          <g id="g266">
            <path id="path274" style="fill-rule:evenodd;fill:url(#radialGradient268)" d="m19.984 34.152c-0.398 0.028-0.906-0.027-1.519-0.16-0.426-0.078-0.973 0-1.641 0.242-0.133 0.051-0.332 0.399-0.597 1.039l-0.36 0.961 0.797 0.68c0.723 0.399 1.535 0.438 2.441 0.117 0.907-0.293 1.614-0.703 2.122-1.238 0.265-0.266 0.437-0.508 0.519-0.719-0.027-0.187-0.121-0.363-0.281-0.519-0.32-0.348-0.813-0.481-1.481-0.403z" inkscape:connector-curvature="0"/>
          </g>
        </g>
      </g>
      <path id="path276" style="fill-rule:evenodd;fill:#4e4906" d="m18.504 35.395c-0.266-0.321-0.453-0.618-0.559-0.883-0.371-0.504-0.558-0.985-0.558-1.438 0-0.347 0.023-0.867 0.078-1.562 0-0.664-0.027-1.184-0.078-1.559-0.055 0.375-0.094 0.641-0.121 0.801l-0.36 2.48c-0.027 0.266-0.039 0.465-0.039 0.598-0.027 0.215 0 0.387 0.078 0.52l0.2 0.281 1.242 0.762h0.117z" inkscape:connector-curvature="0"/>
      <path id="path278" style="fill-rule:evenodd;fill:#4e4906" d="m19.184 34.152c-0.106-0.054-0.184-0.171-0.239-0.359-0.05-0.105-0.105-0.254-0.16-0.441l-0.359-0.918c-0.133 0.132-0.149 0.547-0.039 1.238 0 0.32 0.078 0.562 0.238 0.723l0.559-0.243z" inkscape:connector-curvature="0"/>
      <path id="path280" style="fill-rule:evenodd;fill:#5c5708" d="m20.145 34.152 1.441 0.602-0.359-1.801-0.282-0.601c-0.187-0.481-0.304-0.985-0.359-1.52-0.082-0.613-0.121-1.211-0.121-1.801 0-0.133 0.015-0.386 0.039-0.758 0-0.32-0.024-0.562-0.078-0.718-0.055 0-0.309 0.078-0.762 0.238-0.348-0.027-0.559-0.016-0.637 0.039-0.136 0.055-0.203 0.242-0.203 0.563 0.028 0.343 0.043 0.57 0.043 0.679-0.027 0.453-0.055 0.813-0.082 1.078-0.027 0.508 0.016 0.868 0.121 1.082 0.055-0.242 0.094-0.574 0.121-1 0.051-0.402 0.133-0.734 0.239-1v2.539c0.015-0.847 0.132-1.535 0.359-2.062 0.082 0.27 0.105 0.668 0.082 1.203-0.027 0.531-0.016 0.934 0.039 1.199 0.106 0.934 0.238 1.614 0.399 2.039z" inkscape:connector-curvature="0"/>
      <g id="g282">
        <g id="g284">
          <g id="g290">
            <path id="path298" style="fill-rule:evenodd;fill:url(#radialGradient292)" d="m10.984 17.832-0.277 0.52 2.16-0.797c0.985-0.375 1.625-0.723 1.918-1.043 0.188-0.211 0.242-0.504 0.16-0.879-0.265-1.973-1.519-3.145-3.761-3.52-0.77-0.105-1.704-0.054-2.797 0.16-1.282 0.239-2.387 0.665-3.321 1.282-0.933 0.613-1.722 1.597-2.359 2.957-0.535 1.176-0.789 2.16-0.762 2.961 0.028 0.613 0.387 0.933 1.082 0.961 0.477 0.027 1.09-0.082 1.84-0.321 0.477-0.187 1.504-0.492 3.078-0.922-0.558-0.293-0.879-0.679-0.961-1.16-0.105-0.824-0.066-1.453 0.121-1.879 0.215-0.531 0.536-0.933 0.961-1.199 0.454-0.293 0.946-0.359 1.481-0.199 0.211 0.023 0.453 0.144 0.719 0.359 0.48 0.266 0.785 0.664 0.918 1.2 0.136 0.535 0.066 1.039-0.2 1.519z" inkscape:connector-curvature="0"/>
          </g>
        </g>
      </g>
      <g id="g300">
        <g id="g302">
          <g id="g308">
            <path id="path316" style="fill:url(#radialGradient292);fill-rule:evenodd" d="m9.785 10.914 0.32-0.961c0-0.055 0.067-0.199 0.2-0.441 0.027-0.078 0.054-0.16 0.082-0.239 0-0.105 0.051-0.187 0.16-0.242 0.344-0.238 1.023-0.359 2.039-0.359 0.078 0 0.254-0.012 0.519-0.039 0.293-0.027 0.465 0 0.52 0.078l0.039 0.082v-0.121c0.27 0.133 0.441 0.375 0.52 0.723v1.078c1.761-0.239 3.281-0.375 4.562-0.399 1.281 0.024 3.027 0.199 5.238 0.52l0.043-0.281v-0.918c0.051-0.348 0.211-0.59 0.477-0.723l0.043 0.121 0.039-0.082c0.055-0.078 0.215-0.105 0.48-0.078 0.161 0 0.348 0.012 0.559 0.039 0.535 0 0.895 0.016 1.082 0.039 0.398 0.027 0.719 0.137 0.957 0.32 0.055 0.028 0.137 0.188 0.242 0.481 0.133 0.242 0.199 0.386 0.199 0.441l0.282 0.961c1.492-0.109 2.371-0.226 2.64-0.359 0.477-0.242 0.559-0.828 0.239-1.762-0.559-1.574-1.922-2.535-4.082-2.879-0.344-0.055-1.411 0.051-3.2 0.32-1.972 0.321-3.652 0.477-5.039 0.477h-0.398c-1.363 0-3.043-0.156-5.043-0.477-1.758-0.269-2.824-0.375-3.199-0.32-2.16 0.348-3.52 1.305-4.078 2.879-0.321 0.934-0.243 1.52 0.238 1.762 0.265 0.133 1.16 0.25 2.68 0.359h0.64z" inkscape:connector-curvature="0"/>
          </g>
        </g>
      </g>
      <g id="g318">
        <g id="g320">
          <g id="g326">
            <path id="path334" style="fill-rule:evenodd;fill:url(#linearGradient328)" d="m1.945 19.473c0.028 0.773 0.602 1.082 1.719 0.922-0.078-1.707 0.227-3.067 0.922-4.082 1.281-1.84 2.801-2.946 4.559-3.321 2.293-0.398 3.921-0.226 4.882 0.52-0.617-0.692-1.562-1.16-2.843-1.399-0.77-0.105-1.704-0.054-2.797 0.16-1.282 0.239-2.387 0.665-3.321 1.282-0.933 0.613-1.722 1.597-2.359 2.957-0.535 1.176-0.789 2.16-0.762 2.961z" inkscape:connector-curvature="0"/>
          </g>
        </g>
      </g>
      <g id="g336">
        <g id="g338">
          <g id="g344">
            <path id="path352" style="fill-rule:evenodd;fill:url(#linearGradient346)" d="m10.703 18.352 0.961-0.36 0.32-1c0.133-0.906-0.172-1.574-0.918-2-0.32-0.133-0.933-0.238-1.839-0.32l0.316 0.082c0.215 0.023 0.453 0.144 0.723 0.359 0.48 0.266 0.785 0.664 0.918 1.2 0.132 0.535 0.066 1.039-0.2 1.519l-0.281 0.52z" inkscape:connector-curvature="0"/>
          </g>
        </g>
      </g>
      <g id="g354">
        <g id="g356">
          <g id="g362">
            <path id="path370" style="fill-rule:evenodd;fill:url(#radialGradient364)" d="m33.227 20.113c1.918 0.614 2.89 0.399 2.918-0.64 0.054-0.774-0.2-1.762-0.758-2.961-0.614-1.36-1.387-2.344-2.321-2.957-0.933-0.617-2.039-1.043-3.32-1.282-1.094-0.214-2.039-0.265-2.84-0.16-2.215 0.399-3.468 1.575-3.761 3.52-0.051 0.375 0.015 0.668 0.199 0.879 0.269 0.32 0.906 0.668 1.922 1.043l2.121 0.797-0.082-0.239-0.16-0.281c-0.266-0.48-0.333-0.984-0.2-1.519 0.106-0.536 0.399-0.934 0.879-1.2 0.321-0.215 0.563-0.336 0.723-0.359 0.531-0.16 1.039-0.094 1.519 0.199 0.426 0.266 0.735 0.668 0.918 1.199 0.188 0.426 0.227 1.055 0.121 1.879-0.078 0.481-0.386 0.867-0.921 1.16 1.656 0.481 2.668 0.79 3.043 0.922z" inkscape:connector-curvature="0"/>
          </g>
        </g>
      </g>
      <g id="g372">
        <g id="g374">
          <g id="g380">
            <path id="path388" style="fill-rule:evenodd;fill:url(#linearGradient382)" d="m36.145 19.473c0.054-0.774-0.2-1.762-0.758-2.961-0.614-1.36-1.387-2.344-2.321-2.957-0.933-0.617-2.039-1.043-3.32-1.282-1.094-0.214-2.039-0.265-2.84-0.16-1.281 0.239-2.226 0.707-2.84 1.399 0.985-0.746 2.614-0.918 4.879-0.52 1.785 0.375 3.321 1.481 4.602 3.321 0.613 0.96 0.918 2.32 0.918 4.082 1.094 0.16 1.652-0.149 1.68-0.922z" inkscape:connector-curvature="0"/>
          </g>
        </g>
      </g>
      <g id="g390">
        <g id="g392">
          <g id="g398">
            <path id="path406" style="fill-rule:evenodd;fill:url(#linearGradient400)" d="m27.387 18.352-0.082-0.239-0.16-0.281c-0.266-0.48-0.333-0.984-0.2-1.519 0.106-0.536 0.399-0.934 0.879-1.2 0.321-0.215 0.563-0.336 0.723-0.359l0.359-0.082c-0.906 0.082-1.519 0.187-1.84 0.32-0.75 0.403-1.054 1.067-0.921 2 0.027 0.321 0.121 0.653 0.281 1l0.961 0.36z" inkscape:connector-curvature="0"/>
          </g>
        </g>
      </g>
      <g id="g408">
        <g id="g410">
          <g id="g416">
            <path id="path424" style="fill-rule:evenodd;fill:url(#linearGradient418)" d="m13.504 6.234c-1.758-0.269-2.824-0.375-3.199-0.32-2.16 0.348-3.52 1.305-4.078 2.879-0.243 0.719-0.27 1.227-0.082 1.52 0.187 0.242 0.613 0.398 1.281 0.48 0.051-0.906 0.32-1.719 0.801-2.441 0.449-0.664 0.785-1.094 1-1.278 0.371-0.32 0.812-0.468 1.316-0.441 0.402 0.027 1.453 0.226 3.16 0.601 1.922 0.372 3.668 0.559 5.242 0.559 1.571 0 3.121-0.16 4.641-0.48 0.797-0.161 1.719-0.36 2.758-0.602 0.586-0.078 1.308 0.121 2.16 0.602 0.746 0.398 1.242 0.773 1.48 1.121 0.243 0.347 0.321 1.121 0.243 2.32 0.613-0.055 1-0.215 1.156-0.481 0.16-0.292 0.121-0.785-0.117-1.48-0.563-1.574-1.922-2.535-4.082-2.879-0.344-0.055-1.414 0.051-3.2 0.32-1.972 0.321-3.652 0.477-5.039 0.477h-0.402c-1.359 0-3.039-0.156-5.039-0.477z" inkscape:connector-curvature="0"/>
          </g>
        </g>
      </g>
      <g id="g426">
        <g id="g428">
          <g id="g434">
            <path id="path442" style="fill-rule:evenodd;fill:url(#linearGradient436)" d="m13.824 8.793c0.188 0.16 0.309 0.387 0.36 0.68v1l1.203-0.121c-0.11-0.508-0.227-0.864-0.36-1.079-0.16-0.242-0.562-0.402-1.203-0.48z" inkscape:connector-curvature="0"/>
          </g>
        </g>
      </g>
      <g id="g444">
        <g id="g446">
          <g id="g452">
            <path id="path460" style="fill-rule:evenodd;fill:url(#linearGradient454)" d="m23.984 10.594 0.043-0.281v-0.918c0.051-0.34 0.203-0.582 0.457-0.723-0.293-0.07-0.617 0.047-0.98 0.359-0.266 0.242-0.399 0.723-0.399 1.442l0.879 0.121z" inkscape:connector-curvature="0"/>
          </g>
        </g>
      </g>
    </g>
  </g>
<metadata><rdf:RDF><cc:Work><dc:format>image/svg+xml</dc:format><dc:type rdf:resource="http://purl.org/dc/dcmitype/StillImage"/><cc:license rdf:resource="http://creativecommons.org/licenses/publicdomain/"/><dc:publisher><cc:Agent rdf:about="http://openclipart.org/"><dc:title>Openclipart</dc:title></cc:Agent></dc:publisher></cc:Work><cc:License rdf:about="http://creativecommons.org/licenses/publicdomain/"><cc:permits rdf:resource="http://creativecommons.org/ns#Reproduction"/><cc:permits rdf:resource="http://creativecommons.org/ns#Distribution"/><cc:permits rdf:resource="http://creativecommons.org/ns#DerivativeWorks"/></cc:License></rdf:RDF></metadata></svg>
